<svg version="1.1" id="Layer_1" xmlns="http://www.w3.org/2000/svg" xmlns:xlink="http://www.w3.org/1999/xlink" x="0px" y="0px"
	 width="100%" viewBox="0 0 1024 1024" enable-background="new 0 0 1024 1024" xml:space="preserve">
<path fill="#000000" opacity="1.000000" stroke="none" 
	d="
M483.675354,547.334717 
	C492.718292,555.867920 492.589752,555.773071 496.773041,544.661560 
	C505.605011,521.202515 508.722870,496.624634 511.237396,471.943115 
	C511.807343,466.348724 511.109497,460.630585 511.081940,454.968994 
	C510.961853,430.312531 512.108765,405.663025 511.451324,381.002197 
	C511.167847,370.368500 511.068542,359.729950 510.854187,349.094238 
	C510.817902,347.292877 511.126343,345.221771 509.212433,344.146088 
	C507.034760,342.922150 505.978119,345.140625 504.535522,346.039337 
	C502.735596,347.160706 501.193878,348.796997 498.843597,348.699615 
	C495.365875,337.663727 492.076935,326.570007 483.180634,318.492584 
	C476.402740,312.338562 468.603058,307.649719 459.404755,306.620117 
	C441.690125,304.637268 423.827179,314.436432 416.262054,329.667053 
	C405.332184,351.671844 408.380066,366.329590 428.688965,388.109924 
	C422.357513,395.091003 415.360535,401.346771 407.458313,406.545410 
	C392.416382,416.441071 375.832764,421.734924 357.925323,423.504395 
	C344.193298,424.861267 330.720520,423.271362 317.201050,421.428650 
	C312.967865,420.851685 311.272247,418.643951 311.246521,414.416687 
	C311.204681,407.539886 311.460846,400.663269 310.908386,393.772339 
	C310.698273,391.151245 311.464874,388.630066 315.956421,389.176727 
	C332.311005,391.167328 348.784332,392.737030 365.135498,389.279083 
	C380.862396,385.953186 393.431824,377.917084 401.216583,363.378418 
	C401.762878,362.358093 402.243073,361.302460 402.755463,360.263977 
	C407.410706,350.828766 408.175385,342.583771 399.968140,333.692780 
	C385.754059,318.294525 377.740601,299.067261 370.804260,279.528870 
	C363.002594,257.553070 364.161835,235.021317 367.473846,212.477997 
	C372.132141,180.770920 387.674072,155.456039 412.902435,135.869873 
	C426.531525,125.288879 441.468109,116.869797 456.754517,109.051338 
	C473.666016,100.401726 490.492249,91.608932 506.891693,82.016190 
	C509.490845,80.495827 511.887177,79.049591 515.184631,80.903893 
	C541.610535,95.764168 569.345215,108.210777 595.329773,123.863388 
	C619.209900,138.248383 638.860535,156.851517 650.067627,183.024551 
	C656.059143,197.017242 660.448181,211.531921 660.239441,226.925186 
	C660.068604,239.526978 661.242065,252.124069 658.746826,264.743011 
	C654.671753,285.351410 646.287720,303.954742 634.802185,321.341644 
	C630.663940,327.606201 626.274536,333.693176 621.160767,339.182098 
	C618.467224,342.073273 617.949890,345.121338 618.652527,348.798767 
	C622.698364,369.973419 639.170349,385.823456 661.298462,389.562439 
	C666.526062,390.445770 671.836975,391.589417 677.081177,391.460541 
	C687.194946,391.212158 688.987244,398.930511 691.536560,405.730743 
	C693.087402,409.867340 691.918457,414.342957 690.661072,418.512512 
	C689.809326,421.337067 687.412292,422.485748 684.658081,423.163239 
	C677.194336,424.999115 669.739807,424.015411 662.330994,423.057739 
	C636.774658,419.754303 616.293823,406.610535 597.936768,389.456116 
	C597.715454,389.249329 597.663269,388.861542 597.331909,388.095032 
	C601.406677,383.860077 605.693726,379.567993 608.799988,374.191406 
	C623.579529,348.610046 609.993652,314.812256 581.250549,308.146179 
	C552.374878,301.449341 530.607666,323.130188 529.496704,346.544617 
	C528.376465,370.154388 528.594910,393.893677 529.618896,417.515839 
	C530.292175,433.048737 533.733154,448.412262 537.340820,463.625031 
	C544.792358,495.046356 555.158508,525.379761 571.399353,553.409668 
	C589.886230,585.316101 615.848450,608.876587 650.704468,621.830261 
	C663.341431,626.526672 676.538025,629.446899 689.729797,632.221436 
	C701.687988,634.736511 713.219788,638.475281 723.886292,644.503662 
	C727.509583,646.551392 729.752258,646.207642 731.974304,642.473511 
	C735.850403,635.960327 742.473938,632.439392 748.618958,628.513367 
	C749.727234,627.805176 750.902893,627.206726 751.854919,626.287842 
	C759.382996,619.021790 758.575806,619.970215 765.625610,624.742981 
	C782.946594,636.469543 795.086731,652.645874 803.429138,672.037537 
	C799.078979,669.157349 794.695557,666.791199 789.596924,665.854004 
	C780.912720,664.257690 772.596069,669.863525 769.770996,679.514648 
	C767.453552,687.431641 771.845764,696.956909 779.285095,699.825439 
	C785.009827,702.032959 790.010193,699.727478 794.903015,696.980713 
	C799.751831,694.258728 802.778992,689.546753 806.773499,685.488159 
	C809.270630,687.764587 809.805969,690.477844 810.357910,692.917603 
	C816.555603,720.315552 815.034912,747.079285 800.355347,771.524048 
	C781.550781,802.837708 754.375671,821.232361 716.836548,823.561829 
	C686.908203,825.419128 661.151733,815.164856 636.528564,799.830750 
	C611.908630,784.498596 580.445007,796.808777 573.193054,824.808044 
	C570.228394,836.254456 570.884521,847.680908 579.383057,857.250916 
	C589.077026,868.166992 604.619446,866.261414 609.509033,853.580261 
	C611.751099,847.765381 610.477295,843.216248 605.408813,838.937012 
	C598.578308,833.170288 597.133972,828.821838 600.432922,823.955872 
	C603.603027,819.279968 612.008118,817.736633 618.189209,821.090454 
	C629.328613,827.134766 634.623840,837.215088 634.976746,849.345215 
	C635.942688,882.541626 603.195496,904.199707 571.486694,891.718872 
	C546.282410,881.798218 528.863708,855.678955 528.544373,828.582275 
	C528.290527,807.039795 532.903870,787.106995 546.878784,770.381592 
	C564.704346,749.047791 587.170654,736.829773 615.722534,736.407104 
	C629.720154,736.199890 642.785278,738.748352 655.423828,744.365723 
	C656.154846,744.690613 656.823425,745.156006 657.442444,745.510986 
	C657.704468,748.044922 655.728943,748.826904 654.452637,749.965027 
	C650.387756,753.589905 647.690125,758.160278 645.155334,762.866943 
	C643.542236,765.862122 644.021362,768.306641 647.035339,770.090454 
	C672.702271,785.281799 699.822937,791.713806 729.327515,783.723022 
	C730.608215,783.376099 731.872986,782.943726 733.106628,782.454041 
	C740.099915,779.677979 741.738159,775.228699 737.594116,768.634766 
	C735.110107,764.682373 734.499451,759.756287 730.622742,756.482056 
	C728.884399,755.013672 730.096802,752.999634 731.602722,751.290161 
	C738.027527,743.997009 743.130005,735.738831 742.452881,725.755432 
	C740.999329,704.322449 725.887695,690.267578 704.124878,691.068542 
	C688.787659,691.632996 673.846436,695.343140 658.564392,696.598022 
	C634.835693,698.546387 612.578491,694.328796 591.481323,683.429810 
	C557.199280,665.719238 534.502808,637.667603 519.390747,602.831482 
	C517.407166,598.259094 515.595398,593.612122 513.675537,589.011658 
	C513.564636,588.745911 513.195251,588.587891 512.687195,588.163330 
	C510.438477,589.353149 510.185913,591.807251 509.428925,593.860474 
	C497.813629,625.365356 479.858612,652.349731 452.375488,672.176697 
	C433.260651,685.966553 411.757690,693.824951 388.229370,696.499756 
	C373.933746,698.124878 360.056213,695.943909 346.060638,693.952637 
	C334.244751,692.271484 322.449280,689.565247 310.406097,692.250671 
	C288.287811,697.182617 276.506500,721.619080 286.715637,741.877747 
	C288.325073,745.071411 291.114105,747.714539 293.563690,750.426208 
	C295.342285,752.395081 295.038513,753.513794 293.626251,755.877014 
	C290.054993,761.852905 286.148834,767.791077 285.485901,775.146240 
	C285.215027,778.151550 286.595978,779.335083 288.770508,780.507141 
	C297.930420,785.444519 307.927032,787.164978 318.102234,787.574829 
	C339.806732,788.449158 359.105927,780.542480 377.752472,770.507996 
	C381.082458,768.716003 381.377075,766.070435 380.224854,762.874084 
	C378.837677,759.025940 376.563446,755.772827 373.555878,753.044983 
	C371.356384,751.050049 369.052277,749.170349 366.666077,747.129150 
	C370.047058,743.556580 373.744812,742.704041 377.078186,741.580750 
	C398.252899,734.445435 419.716492,733.553955 440.530975,742.105896 
	C470.520142,754.427429 489.778351,776.572693 495.180115,808.898438 
	C499.559296,835.104980 494.864227,859.566162 474.655701,878.696472 
	C459.405334,893.133301 441.128723,899.874756 420.529541,893.000366 
	C397.012756,885.152283 382.719391,858.611694 394.827454,833.474182 
	C399.074493,824.656921 407.836151,819.177063 416.713409,819.685730 
	C421.750427,819.974365 426.048065,822.875122 426.920319,827.056580 
	C427.914948,831.824768 425.948242,835.390381 421.866791,838.048645 
	C415.365112,842.283264 413.457153,848.129517 416.164673,854.740906 
	C418.830994,861.251770 425.785126,864.879700 432.673981,864.221436 
	C443.703217,863.167358 451.504120,852.422119 453.383209,843.709106 
	C456.860748,827.584717 452.388855,813.572327 439.414154,803.058105 
	C426.997498,792.996216 413.166504,790.079895 397.803833,796.164856 
	C392.483490,798.272095 387.446198,800.837463 382.766418,803.957581 
	C367.748016,813.970642 350.860992,818.884583 333.468262,822.260254 
	C278.563446,832.916382 225.486893,795.878479 213.730438,743.028015 
	C209.921356,725.904541 210.261673,708.801880 214.786880,691.833496 
	C215.410706,689.494263 215.823975,686.944885 217.876099,685.218689 
	C220.259399,685.313660 220.711807,687.442322 221.770004,688.770996 
	C225.361893,693.280823 229.469284,697.080139 234.950058,699.158997 
	C241.482758,701.636719 247.980194,700.235718 251.734879,695.563110 
	C256.633026,689.467529 257.509766,681.311707 253.885620,675.556030 
	C246.378723,663.633972 232.946808,662.531372 222.198181,673.173889 
	C220.813705,671.027039 222.136963,669.255798 222.937012,667.646301 
	C230.925781,651.574829 242.127884,638.052063 256.086426,626.860352 
	C262.535828,621.689331 263.947388,621.936157 271.266052,626.461060 
	C274.378937,628.385742 277.670929,630.024109 280.904694,631.749084 
	C285.997589,634.465881 290.467804,637.951782 293.316772,643.025208 
	C295.074493,646.155334 296.952637,646.140686 299.753571,644.610413 
	C310.502106,638.738342 322.061462,634.748047 333.910889,632.142883 
	C345.108490,629.681030 356.323608,627.391846 367.344879,624.196777 
	C397.017029,615.594971 420.423309,598.154724 439.718719,574.308044 
	C451.060638,560.290894 458.750946,544.256042 467.460052,528.746704 
	C467.944794,527.883545 468.408752,527.005432 468.953308,526.181152 
	C469.107574,525.947571 469.513031,525.879944 470.344025,525.468384 
	C475.620850,532.044556 476.023499,541.798340 483.675354,547.334717 
M525.948242,198.603378 
	C522.429932,196.708023 518.862854,194.896713 515.409363,192.889786 
	C512.807495,191.377701 510.553162,191.583649 507.974274,193.116074 
	C494.798889,200.945053 481.990662,209.589294 468.181030,216.095428 
	C455.568939,222.037384 450.632202,230.451904 453.065216,243.818558 
	C453.605591,246.787262 452.234589,250.015533 453.823212,252.831390 
	C455.807007,252.855164 456.991272,251.857346 458.266846,251.103302 
	C475.040894,241.187256 491.856689,231.340118 508.537018,221.268738 
	C511.674103,219.374603 513.948975,219.416306 517.112671,221.308411 
	C533.123657,230.883865 549.294312,240.192627 565.432739,249.554123 
	C569.354980,251.829330 570.985046,251.148376 571.212402,246.560104 
	C571.499634,240.763214 570.991089,234.931290 571.091309,229.119064 
	C571.149231,225.761536 570.052002,223.492722 567.043823,221.816391 
	C553.515564,214.277725 540.062683,206.603714 525.948242,198.603378 
M571.667297,179.690857 
	C571.704041,176.051254 572.108276,172.592331 567.891052,170.307648 
	C550.340271,160.799591 532.898315,151.087357 515.525269,141.257645 
	C512.460571,139.523621 510.210632,139.831192 507.333282,141.546677 
	C493.330811,149.895157 479.457825,158.517792 465.036316,166.085434 
	C456.280426,170.680069 450.919769,176.119110 452.885590,186.548325 
	C453.034760,187.339966 452.843750,188.207870 452.742920,189.032013 
	C452.512573,190.914307 452.412994,192.782761 454.373016,193.861603 
	C456.146179,194.837540 457.572205,193.673157 458.970642,192.823547 
	C475.603912,182.718201 492.262787,172.653824 508.811157,162.411102 
	C511.304260,160.868027 513.193481,160.738220 515.609497,162.313644 
	C520.484680,165.492737 525.496521,168.462112 530.451111,171.519470 
	C541.915833,178.594086 554.026245,184.567230 565.225281,192.112015 
	C569.548828,195.024796 571.425476,193.959702 571.627441,189.116592 
	C571.745239,186.292038 571.660583,183.459045 571.667297,179.690857 
M527.909424,109.669655 
	C524.999512,108.049530 521.817749,106.773827 519.236877,104.736809 
	C514.036926,100.632645 509.592896,101.881165 504.314270,104.950081 
	C478.413849,120.008102 452.295471,134.690002 427.438019,151.473221 
	C425.548462,152.749008 424.073639,154.232864 423.236359,156.256699 
	C421.690155,159.994293 418.823242,162.376923 415.569519,164.538223 
	C409.883240,168.315384 404.351746,172.325638 398.663300,176.099457 
	C394.811249,178.655029 394.854218,181.193680 398.395386,183.824173 
	C400.656281,185.503616 402.926208,187.293396 405.456604,188.459991 
	C409.713531,190.422607 412.694611,194.343979 417.271637,195.764954 
	C419.098267,196.332077 420.504944,196.160156 421.673767,194.587372 
	C422.546234,193.413437 423.034729,192.143311 421.884857,190.982529 
	C416.294037,185.338684 419.522705,178.416977 419.125092,172.039413 
	C419.024963,170.433533 420.546814,169.491486 421.728821,168.564301 
	C431.816528,160.651489 442.161224,153.160049 453.433319,146.934418 
	C470.486053,137.516113 487.551819,128.083023 504.157196,117.913498 
	C510.097443,114.275543 514.433716,114.037422 520.353088,117.588509 
	C535.628784,126.752502 551.288513,135.276886 566.809326,144.031052 
	C568.064270,144.738907 569.273193,145.832031 570.915344,145.203873 
	C573.559570,138.078720 572.610474,134.663315 566.509583,131.202591 
	C553.908508,124.054726 541.211670,117.075722 527.909424,109.669655 
M527.483582,265.052979 
	C523.613403,262.786713 519.768066,260.476501 515.864075,258.270081 
	C513.388916,256.871216 510.904510,256.676849 508.337616,258.322449 
	C501.622284,262.627472 494.851257,266.845978 488.085266,271.071533 
	C484.752045,273.153198 484.655548,275.174988 487.950775,277.437775 
	C494.929077,282.229736 501.866364,287.081696 508.795776,291.944244 
	C510.242523,292.959473 511.670105,293.734802 513.346802,292.580597 
	C520.865112,287.405182 528.408264,282.264191 535.853577,276.985443 
	C538.488220,275.117432 538.429077,272.803497 535.866943,270.843475 
	C533.361450,268.926849 530.703735,267.209290 527.483582,265.052979 
M615.861694,168.685211 
	C611.665100,164.983261 605.622131,163.286377 603.158203,157.778534 
	C601.759094,154.650803 599.608276,152.676529 596.801941,151.081360 
	C593.043884,148.945190 589.293701,146.792542 585.591980,144.560974 
	C584.272217,143.765381 582.930603,143.220703 581.399292,143.132019 
	C579.299805,143.010468 577.917175,143.945618 577.182861,145.913971 
	C576.356689,148.128510 578.029785,148.789062 579.421753,149.714737 
	C587.868652,155.332184 595.674316,161.768829 603.406006,168.318512 
	C606.081970,170.585373 607.166565,173.162766 607.130310,176.562454 
	C607.082336,181.054688 607.034058,185.524399 606.438171,189.997238 
	C606.023071,193.113174 607.192627,195.238220 610.681091,193.396698 
	C616.276794,190.442780 621.543274,186.903137 626.369995,182.811264 
	C628.791199,180.758636 629.074219,178.327393 626.091553,176.199387 
	C622.842773,173.881577 619.659668,171.471741 615.861694,168.685211 
M756.838684,640.632751 
	C750.804810,636.098267 745.199890,635.827271 740.576477,639.846558 
	C736.282898,643.579102 734.991455,649.561646 737.456421,654.300415 
	C740.673279,660.484558 748.424805,662.950195 754.124634,659.602295 
	C760.575439,655.813477 761.941528,648.006470 756.838684,640.632751 
M289.441040,651.680908 
	C289.507843,650.357117 289.772583,649.007874 289.606171,647.714050 
	C288.988037,642.908752 284.653931,638.394104 279.910034,637.431091 
	C274.878326,636.409546 270.329529,638.419250 267.540100,642.896118 
	C264.833923,647.239380 265.169525,651.951416 268.495911,656.314453 
	C274.020294,663.560547 283.566010,661.746582 289.441040,651.680908 
M790.778992,745.385010 
	C789.621826,745.316467 788.456238,745.122986 787.309021,745.200867 
	C782.353333,745.537109 778.893066,748.556030 777.483459,753.663269 
	C776.190186,758.348572 777.892456,763.763000 781.433350,766.227539 
	C785.756775,769.236633 790.083374,769.242554 794.428955,766.245422 
	C802.458557,760.707275 801.080139,750.797058 790.778992,745.385010 
M248.465607,758.031372 
	C248.430161,749.994202 243.434113,744.910583 235.967697,745.314514 
	C229.740036,745.651428 225.298752,751.548523 226.115204,758.396423 
	C226.711380,763.396667 231.014664,767.966858 235.674271,768.548218 
	C241.254700,769.244507 245.940491,765.602966 248.465607,758.031372 
M413.397461,749.320374 
	C412.721222,747.426208 411.781250,745.686890 410.390015,744.214478 
	C407.248718,740.889771 401.892181,739.998962 398.084747,742.165955 
	C393.625244,744.704102 391.063080,750.912048 392.394226,755.953979 
	C393.555573,760.352783 396.975067,762.786133 402.042114,762.819458 
	C409.832550,762.870728 413.612213,758.688660 413.397461,749.320374 
M632.773193,754.886536 
	C632.849854,753.565491 633.071350,752.234070 632.977539,750.925232 
	C632.607605,745.763672 629.229309,741.983948 624.505615,741.304871 
	C619.062866,740.522461 614.530701,743.531189 612.338074,749.382568 
	C610.594238,754.036255 612.195862,758.879761 616.339600,761.483459 
	C622.234314,765.187439 629.426819,762.622742 632.773193,754.886536 
M440.533539,747.400696 
	C438.294464,747.420654 436.314606,748.254395 434.511841,749.478638 
	C430.228729,752.387390 428.108673,758.571594 429.954956,762.579651 
	C431.798370,766.581482 438.393066,770.291138 442.272675,769.508545 
	C447.250519,768.504456 450.907562,763.656372 450.857361,758.127869 
	C450.803406,752.183594 448.026764,749.069214 440.533539,747.400696 
M583.728271,769.287476 
	C593.069702,767.973145 597.260376,763.209534 595.283203,756.152832 
	C593.803894,750.873047 588.802063,747.147461 583.784241,747.587952 
	C578.788269,748.026489 574.808838,752.025574 574.366821,757.051758 
	C573.810303,763.379944 576.581970,767.230408 583.728271,769.287476 
M556.511108,794.208191 
	C563.590576,791.283020 566.179077,787.093018 564.407532,781.426453 
	C562.609436,775.674927 557.689331,772.987427 551.485413,774.368042 
	C546.276123,775.527344 543.263000,780.864258 544.205627,787.261963 
	C544.970398,792.451904 549.011780,794.966614 556.511108,794.208191 
M481.252899,783.616882 
	C480.899231,782.346375 480.717560,780.994385 480.161224,779.819885 
	C478.079559,775.425049 472.173492,772.671082 468.215393,774.132507 
	C462.506134,776.240662 459.159912,781.784058 460.489716,786.931091 
	C461.912506,792.438049 467.030701,795.721008 472.657410,794.565063 
	C478.151276,793.436401 480.556946,789.587524 481.252899,783.616882 
M747.190918,787.919067 
	C746.105103,788.327515 744.964905,788.631287 743.942444,789.161987 
	C738.571777,791.949341 736.652039,797.907349 739.394043,803.109558 
	C741.844543,807.758667 748.230286,809.730835 753.125488,807.350342 
	C757.376404,805.283203 759.940125,800.314636 759.089905,795.791321 
	C758.271790,791.438782 753.822876,788.234680 747.190918,787.919067 
M285.807892,802.980164 
	C287.525452,798.907471 287.934021,794.830444 284.682770,791.383118 
	C281.982178,788.519592 278.678589,786.658997 274.452484,787.984863 
	C269.725616,789.467834 266.720947,792.556763 266.385803,797.566528 
	C266.065491,802.353821 268.260529,805.818176 272.838531,807.662842 
	C278.171631,809.811890 282.143555,807.827148 285.807892,802.980164 
M701.029846,795.984863 
	C693.151184,796.741577 690.157837,806.156738 693.595703,811.044800 
	C696.177124,814.715149 701.209900,816.611877 704.970459,815.161072 
	C709.023254,813.597473 712.259949,807.793213 711.585205,803.299133 
	C710.977966,799.254578 707.252075,796.425720 701.029846,795.984863 
M372.577972,797.854004 
	C373.287720,792.929565 372.013580,788.921204 367.147736,786.796326 
	C363.239258,785.089539 358.277954,786.538757 355.536224,790.089539 
	C353.255371,793.043396 352.372925,796.430969 353.992798,799.862305 
	C355.636353,803.343628 358.494598,805.645996 362.587494,805.590393 
	C367.396820,805.525146 370.695984,803.126099 372.577972,797.854004 
M322.644073,815.580200 
	C324.191803,815.744629 325.609100,815.276855 326.977051,814.640625 
	C331.543213,812.517212 333.931030,806.849792 332.310089,802.025696 
	C330.769104,797.439697 326.241364,794.972046 321.051788,796.188049 
	C317.009186,797.135254 314.270935,799.365784 314.046600,804.020447 
	C313.738342,810.416870 315.470337,813.148743 322.644073,815.580200 
M663.146729,786.221863 
	C656.837463,786.421143 653.328125,789.065796 652.437439,794.292664 
	C651.656799,798.873535 654.461548,803.299683 659.259094,805.057739 
	C663.120300,806.472656 667.857422,804.615112 670.384949,800.695068 
	C673.833313,795.346863 671.097046,789.265442 663.146729,786.221863 
M436.218903,872.537720 
	C434.838684,872.337341 433.616760,872.778015 432.432983,873.433655 
	C428.607819,875.551941 427.053558,879.329834 428.510498,883.010742 
	C429.926849,886.589172 433.808899,888.164917 438.064911,886.787598 
	C440.855530,885.884583 442.458252,883.860779 442.688110,880.956116 
	C443.025940,876.686523 440.651672,874.192505 436.218903,872.537720 
M592.874756,886.415283 
	C595.815186,884.181396 598.087341,881.390137 596.554382,877.601440 
	C595.202881,874.261047 592.777222,871.572693 588.468262,872.906494 
	C584.224731,874.220154 581.731201,878.423767 582.875732,882.092651 
	C584.114197,886.062805 587.738281,887.868042 592.874756,886.415283 
M553.509277,851.101807 
	C548.910706,849.758484 546.516296,852.298828 545.467590,856.189331 
	C544.497070,859.789734 546.318237,862.336792 549.826538,863.445374 
	C553.240051,864.523987 556.852173,862.329895 557.914673,858.643738 
	C558.943726,855.073303 556.801636,853.072327 553.509277,851.101807 
M467.830414,854.218628 
	C465.294098,858.389526 467.102936,861.368835 470.846039,863.156311 
	C474.400604,864.853638 477.454987,863.397705 479.135101,859.925476 
	C480.548523,857.004456 479.541168,854.240417 477.070953,852.380188 
	C473.889191,849.983948 470.851562,850.753418 467.830414,854.218628 
z"/>
<path fill="#000000" opacity="1.000000" stroke="none" 
	d="
M377.070953,485.307434 
	C363.130981,489.005341 349.459442,491.690735 335.323334,491.157928 
	C312.445251,490.295624 290.673859,484.575439 269.524506,476.188477 
	C241.925217,465.243683 217.316956,449.656952 196.711929,428.159180 
	C175.850800,406.394257 161.232651,381.074005 156.336670,351.077789 
	C149.565125,309.590363 161.360916,273.541687 194.088516,247.143097 
	C217.299072,228.421112 245.104965,221.997528 274.381073,233.509659 
	C302.699585,244.645233 320.454620,273.214844 318.187897,303.634583 
	C316.749451,322.938751 301.477966,345.415924 276.928650,346.781067 
	C263.183716,347.545380 250.179153,340.824127 246.298782,327.737762 
	C243.881088,319.584106 248.853226,311.130615 256.064270,310.667175 
	C258.958740,310.481171 261.304779,311.116241 262.725952,313.939392 
	C264.811981,318.083282 268.090088,320.314606 272.852966,319.470734 
	C277.321228,318.679077 281.562622,314.137878 282.474152,309.608185 
	C284.120819,301.425446 280.531250,295.256836 274.581268,290.356903 
	C264.724030,282.239288 251.959702,281.801483 240.582199,288.777313 
	C225.142044,298.244049 217.838943,315.599976 220.588440,334.934265 
	C223.233398,353.533691 232.690247,368.439728 245.049011,381.856018 
	C250.225311,387.475220 255.445312,393.082031 261.877625,397.395905 
	C264.437103,399.112396 265.857361,401.201355 265.056885,404.957642 
	C264.192291,409.014832 264.976440,413.396973 264.723938,417.618408 
	C264.470032,421.862061 265.293945,426.399109 260.931122,430.133026 
	C292.552643,449.139954 326.073212,455.594788 361.350250,452.431335 
	C397.541534,449.185913 426.902771,432.247772 450.224426,403.050385 
	C448.375519,425.152679 419.517120,472.229584 377.070953,485.307434 
M214.450439,270.202820 
	C219.437866,266.759674 222.752274,262.379730 221.478836,255.964584 
	C219.938385,248.204391 211.801331,242.811996 204.748840,244.614563 
	C197.308395,246.516312 193.048920,254.997879 195.530701,262.970001 
	C197.809052,270.288635 205.976181,273.706238 214.450439,270.202820 
M239.461624,241.079651 
	C239.442184,242.238815 239.279343,243.416687 239.427643,244.553970 
	C240.141602,250.028992 244.298431,254.410446 249.627228,255.420990 
	C253.838669,256.219635 259.461212,253.318634 261.724121,249.179489 
	C264.262878,244.535812 263.441162,239.015549 259.615723,235.015503 
	C252.424744,227.496246 244.532867,229.588699 239.461624,241.079651 
M183.765549,372.991394 
	C178.650894,376.077454 176.083252,381.865387 177.394135,387.353729 
	C178.417709,391.639160 182.321609,394.500000 187.479996,394.744873 
	C193.085983,395.011017 197.489990,392.499512 199.155746,388.086548 
	C200.840805,383.622437 198.836746,377.833862 194.424255,374.400665 
	C191.413101,372.057770 188.044876,371.854950 183.765549,372.991394 
M182.446884,321.194275 
	C179.064041,311.683777 169.318161,308.554443 163.590561,315.139618 
	C159.773193,319.528534 159.228821,325.369019 162.218384,329.861725 
	C164.826797,333.781647 169.868942,335.558289 174.495529,334.187683 
	C179.736145,332.635162 182.567551,328.354706 182.446884,321.194275 
M304.387970,266.693970 
	C303.801483,264.981232 303.457886,263.131836 302.584808,261.580383 
	C299.489563,256.080261 292.542419,254.479706 287.048950,257.843323 
	C281.822723,261.043335 280.097778,267.735626 283.252869,272.932068 
	C285.697906,276.958984 289.315155,279.074890 294.061768,278.489838 
	C299.715424,277.792969 302.733612,274.395782 304.387970,266.693970 
M311.688904,301.890320 
	C309.493378,296.655609 306.278839,294.412018 302.024353,295.512054 
	C298.279572,296.480255 296.022858,298.861084 296.153595,303.014099 
	C296.292389,307.421783 299.786926,311.411926 303.632843,311.495117 
	C308.043365,311.590515 311.132416,308.227936 311.688904,301.890320 
z"/>
<path fill="#000000" opacity="1.000000" stroke="none" 
	d="
M827.918945,428.923157 
	C811.188538,446.022247 792.062256,459.073486 770.766724,469.075806 
	C749.700378,478.970459 727.834106,486.520905 704.745728,489.535858 
	C665.456055,494.666443 630.821899,485.202118 603.198486,455.226074 
	C590.359436,441.293579 580.889771,425.470825 575.187561,407.394073 
	C574.888062,406.444580 574.288147,405.594177 575.175293,404.171600 
	C580.236450,409.447266 584.929260,414.898254 590.341919,419.685577 
	C618.717285,444.782745 652.050476,454.922119 689.417480,452.926331 
	C713.146606,451.658905 735.793701,445.857574 756.739380,434.554260 
	C766.315430,429.386505 776.019348,424.157501 784.174927,416.386536 
	C782.724365,412.220276 776.107117,416.659546 775.961426,411.129150 
	C773.710693,411.382538 776.034180,413.956940 774.130188,414.012665 
	C770.508850,414.118622 770.434753,417.516479 770.083740,419.435120 
	C769.627197,421.931091 769.229980,424.841034 766.723999,423.984497 
	C764.587036,423.254059 761.021423,422.949158 761.444031,417.538910 
	C761.790588,413.102600 761.307983,407.892914 760.595825,403.135132 
	C760.226318,400.666107 761.181824,399.777344 762.600464,398.695526 
	C770.690491,392.525818 778.263977,385.611206 784.684143,377.883240 
	C797.814819,362.077881 805.486206,344.011414 805.479370,322.824982 
	C805.472290,300.943146 787.072205,285.389984 771.132202,283.800385 
	C756.040283,282.295349 739.767029,294.709778 743.151428,309.513397 
	C744.229492,314.228973 746.608521,318.089417 751.394409,319.299164 
	C756.108521,320.490723 759.565369,317.910858 762.466492,314.207001 
	C766.793030,308.683197 773.999573,309.934723 777.347900,316.606171 
	C781.182617,324.246948 778.055603,334.510132 770.129883,340.296722 
	C757.708862,349.365295 738.315247,348.359619 725.986938,337.977631 
	C708.837097,323.535248 703.617859,305.453003 708.804077,283.770264 
	C715.860291,254.268951 734.853516,236.701050 763.533081,229.737869 
	C781.592224,225.353241 799.432129,228.709290 815.749634,237.467728 
	C847.057373,254.272202 863.966248,281.187988 869.616821,315.876160 
	C873.345398,338.765686 867.916565,360.080017 859.646545,381.052216 
	C852.509949,399.150238 841.355408,414.578461 827.918945,428.923157 
M803.640076,256.152435 
	C802.963989,258.531586 803.782288,260.802185 804.371948,263.006531 
	C806.012756,269.140930 813.197998,273.089478 819.799133,271.677582 
	C826.269836,270.293579 831.055481,264.102722 830.408081,257.953522 
	C829.642334,250.680405 824.842529,245.166794 818.603699,244.393524 
	C812.429749,243.628265 806.861084,247.795395 803.640076,256.152435 
M773.553101,230.430679 
	C772.125977,230.808380 770.604614,230.984619 769.288452,231.599747 
	C764.379517,233.894119 761.498535,239.814148 762.468384,245.295853 
	C763.462341,250.913513 767.520142,254.938980 772.611145,255.357651 
	C778.591980,255.849503 783.591675,252.539856 785.657715,246.721252 
	C788.290466,239.306671 783.582458,232.549896 773.553101,230.430679 
M838.910095,372.393768 
	C837.916138,372.355835 836.917847,372.238831 835.928955,372.292816 
	C829.801392,372.627472 824.957520,378.459656 825.348572,384.988708 
	C825.724609,391.267944 830.005310,394.984283 836.679199,394.825226 
	C842.377563,394.689453 846.596375,391.513031 847.609619,386.595581 
	C848.991394,379.889374 846.580811,375.611145 838.910095,372.393768 
M736.222351,257.009521 
	C728.793762,255.261093 724.946167,256.754822 721.980347,262.538422 
	C719.276733,267.810883 719.979492,271.958801 724.178833,275.514221 
	C729.631592,280.130859 736.982361,279.297241 741.272888,273.575684 
	C745.596375,267.810211 744.078918,262.127258 736.222351,257.009521 
M862.702026,330.005981 
	C864.013000,328.150604 864.194031,325.920959 864.424438,323.814880 
	C865.137451,317.296112 858.447449,310.930664 852.173950,311.907867 
	C847.306946,312.665985 844.386658,315.540741 843.384277,320.213257 
	C842.094910,326.223969 844.067322,330.828857 848.737244,333.494110 
	C852.913635,335.877686 857.450745,334.917694 862.702026,330.005981 
M723.284363,310.634888 
	C728.337402,307.722717 729.859741,304.316162 727.937683,300.222107 
	C726.204834,296.531006 722.183105,294.744873 718.472168,296.018127 
	C714.831665,297.267273 711.976257,301.571503 712.634949,304.817200 
	C713.484314,309.002716 717.043640,311.146912 723.284363,310.634888 
M806.256226,394.589020 
	C805.402283,392.188507 803.805847,391.893829 802.093384,393.493896 
	C800.884399,394.623627 799.835144,395.749359 798.205688,396.383240 
	C796.608521,397.004547 795.330750,398.463531 795.515381,400.228821 
	C795.704773,402.038391 797.244141,402.860748 799.313354,403.019165 
	C801.544861,400.448700 803.825439,397.821655 806.256226,394.589020 
M810.791443,385.729370 
	C808.431885,385.385956 807.352600,386.591248 807.424377,388.787140 
	C807.460510,389.890991 808.596863,390.855133 809.460876,390.325623 
	C810.895813,389.446259 813.554504,388.652069 810.791443,385.729370 
z"/>
<path fill="#000000" opacity="1.000000" stroke="none" 
	d="
M203.734833,610.470703 
	C206.125458,632.644348 192.025177,654.345581 171.466812,661.761230 
	C155.425507,667.547424 140.427307,666.341003 126.217758,656.990417 
	C108.327553,645.217773 103.213066,621.426941 114.978043,604.888794 
	C119.636559,598.340271 125.871216,594.604614 134.222839,595.853027 
	C137.676071,596.369141 140.470444,597.998413 141.581284,601.722595 
	C142.574066,605.050842 141.531494,607.859009 139.027649,609.762146 
	C133.105057,614.263733 130.142075,619.797607 132.712280,627.107056 
	C134.794968,633.030090 139.179199,636.953491 145.552963,637.547302 
	C153.757187,638.311584 160.270172,634.876648 164.367081,627.736694 
	C169.089493,619.506592 169.816650,610.692871 166.454254,601.783203 
	C163.753082,594.625671 160.289673,587.741150 157.833099,580.508423 
	C148.817917,553.965637 155.840210,530.978943 174.383896,511.041992 
	C195.514954,488.323212 222.166367,486.686127 249.577133,498.135162 
	C268.785461,506.158203 287.699127,514.910095 308.589386,517.891479 
	C328.933014,520.794739 349.157257,521.239807 369.494843,517.230957 
	C402.808990,510.664246 428.070740,492.015106 448.341278,465.757050 
	C452.689331,460.124634 456.107208,453.747162 459.138428,447.229126 
	C459.923889,445.540222 460.126099,443.321899 462.305084,442.390411 
	C463.826752,443.606140 463.221313,445.159698 463.041718,446.519196 
	C459.960419,469.845184 452.651520,491.783417 442.046387,512.781921 
	C433.844116,529.022705 425.331451,544.913696 413.065887,558.605591 
	C396.418060,577.189392 376.736542,590.857849 351.630737,593.795044 
	C334.073914,595.849121 316.903687,592.023254 300.844757,584.052734 
	C285.321167,576.347778 273.049072,564.727844 261.557526,552.110229 
	C254.244797,544.080994 246.802414,536.093506 236.776047,531.457092 
	C226.554962,526.730591 213.263092,528.333923 204.182770,536.172546 
	C189.405075,548.929443 188.585892,566.746765 194.942261,582.569763 
	C198.525635,591.489929 202.494934,600.365479 203.734833,610.470703 
M321.706146,579.259216 
	C325.666229,574.314514 325.456726,569.926453 321.110809,566.788818 
	C317.251801,564.002747 311.315247,565.119751 308.800323,569.194458 
	C306.839233,572.371826 306.795685,575.579285 309.500488,578.352966 
	C312.945557,581.885803 316.843811,582.777649 321.706146,579.259216 
M180.578568,628.850464 
	C180.637146,632.091797 181.666916,634.814331 185.074387,635.746765 
	C187.410385,636.385986 189.814957,636.084900 191.482666,634.086792 
	C192.870193,632.424377 194.075562,630.528870 193.000229,628.177246 
	C191.833786,625.626282 190.069458,623.595398 187.122269,623.411804 
	C183.815353,623.205933 182.050522,625.424377 180.578568,628.850464 
M152.360062,646.714844 
	C149.498535,648.406250 148.603210,650.975037 149.654968,653.977295 
	C150.399872,656.103699 152.058060,657.607544 154.547668,657.594360 
	C157.135056,657.580566 158.989395,656.247009 160.084366,653.980957 
	C162.122894,649.762085 159.028336,646.470215 152.360062,646.714844 
z"/>
<path fill="#000000" opacity="1.000000" stroke="none" 
	d="
M861.266602,664.177002 
	C841.001404,657.592163 826.729858,645.601990 822.343628,624.254028 
	C820.499878,615.279968 821.443176,606.362427 824.588806,597.738464 
	C826.355774,592.894226 828.283630,588.108826 830.120911,583.290039 
	C836.741943,565.923889 835.682434,548.906677 822.253296,536.843445 
	C812.662598,528.228333 799.615784,526.050293 787.580994,532.157227 
	C777.069580,537.491089 769.606689,546.377197 761.990356,554.895752 
	C746.622314,572.084473 728.492188,584.845398 706.106323,590.875122 
	C675.923279,599.005127 649.222168,591.744202 625.697327,571.690369 
	C599.217102,549.117310 584.891663,518.718018 572.040955,487.488007 
	C566.391846,473.759430 563.700989,459.184631 561.947876,444.463928 
	C561.833191,443.501251 561.506226,442.471436 562.675049,441.821838 
	C564.325989,441.702423 564.418579,443.173950 564.796570,444.138458 
	C571.850769,462.138306 583.936523,476.396027 598.372314,488.784119 
	C618.491333,506.049194 641.766174,516.255615 668.148621,519.494812 
	C687.545044,521.876282 706.573730,519.949829 725.619873,516.135620 
	C743.293152,512.596252 759.357849,504.889740 775.747620,497.989380 
	C789.884644,492.037537 804.342285,489.389221 819.567261,492.551788 
	C830.331665,494.787781 839.396301,500.361664 847.311462,507.632935 
	C871.642517,529.984741 877.370422,559.976501 864.282043,588.918213 
	C860.206848,597.929382 856.252441,606.896545 857.257874,617.138367 
	C857.940918,624.095642 860.799194,629.903931 866.378662,634.237244 
	C872.207520,638.764160 878.493164,638.410339 884.757263,635.499512 
	C890.481995,632.839294 892.854370,627.923828 893.059448,621.759216 
	C893.211792,617.181396 891.300720,613.717163 887.652527,611.140320 
	C884.185852,608.691650 882.085388,605.584290 884.003906,601.371887 
	C885.778503,597.475403 888.830322,595.385376 893.525391,595.540955 
	C903.714966,595.878601 912.195984,603.676147 915.373413,615.635925 
	C921.019165,636.886536 906.352722,659.491394 882.427673,664.276306 
	C875.530945,665.655518 868.594177,666.075317 861.266602,664.177002 
M816.528748,516.789490 
	C821.420654,524.778992 823.715942,525.396484 830.384583,520.555969 
	C833.226624,518.493042 837.779053,517.349304 836.652893,512.693176 
	C835.461670,507.768066 830.421753,508.306793 826.751282,507.592560 
	C820.135681,506.305206 816.895935,509.191223 816.528748,516.789490 
M707.376404,581.048767 
	C713.559082,581.636841 717.991699,578.897339 718.612244,574.104614 
	C719.136230,570.057922 716.737854,566.395935 712.911987,565.401123 
	C708.272095,564.194580 704.404114,566.131653 702.439209,570.646545 
	C700.319153,575.517944 702.679138,578.490356 707.376404,581.048767 
M833.881409,626.441528 
	C832.437378,628.259949 831.842163,630.185059 833.013489,632.401978 
	C834.726929,635.644836 838.468628,636.736572 841.442505,634.826416 
	C844.518188,632.851013 845.515747,628.901611 843.620300,626.203979 
	C841.376282,623.010132 838.206238,622.901123 833.881409,626.441528 
M870.543457,657.286560 
	C874.462341,656.918823 875.969910,654.445923 875.858643,650.855286 
	C875.777527,648.238892 874.340393,646.503113 871.615234,646.211548 
	C868.350525,645.862244 866.059143,647.442627 865.166626,650.446167 
	C863.993835,654.392883 866.695557,656.051514 870.543457,657.286560 
z"/>
<path fill="#000000" opacity="1.000000" stroke="none" 
	d="
M505.855347,939.207886 
	C500.460236,935.850708 495.444427,932.563354 490.267181,929.553711 
	C487.812469,928.126892 486.665009,926.408142 486.842896,923.539795 
	C487.058990,920.054871 487.475677,916.465637 486.905090,913.072937 
	C485.709839,905.966187 488.707458,901.846863 494.945160,899.033203 
	C498.558868,897.403076 502.146637,895.369751 505.155396,892.820618 
	C510.408539,888.369873 514.918823,888.962463 520.174255,892.904724 
	C524.402649,896.076477 529.289307,898.393433 533.971619,900.927856 
	C536.474792,902.282776 537.466980,904.122986 537.386353,906.962830 
	C537.225830,912.618896 537.238647,918.284546 537.367737,923.941956 
	C537.427551,926.566711 536.489075,928.348572 534.278992,929.712769 
	C527.625549,933.819519 521.032898,938.024597 514.400879,942.166138 
	C510.559021,944.565369 508.892700,940.379883 505.855347,939.207886 
z"/>
<path fill="#000000" opacity="1.000000" stroke="none" 
	d="
M478.782074,356.178833 
	C476.218048,371.265991 464.784973,379.631714 452.467957,378.847687 
	C439.098724,377.996704 428.771301,366.379700 428.667480,353.221527 
	C428.560669,339.686615 440.074066,328.652435 454.230194,328.722778 
	C467.572845,328.789093 478.957184,340.551666 478.552246,353.829590 
	C478.532318,354.484314 478.709656,355.145050 478.782074,356.178833 
z"/>
<path fill="#000000" opacity="1.000000" stroke="none" 
	d="
M552.063477,338.188293 
	C565.489258,322.493347 588.175232,328.407959 594.508301,343.708893 
	C598.744995,353.945190 596.114624,365.644897 587.544373,372.554260 
	C577.749207,380.451111 566.546387,380.841858 556.715637,373.629578 
	C547.717041,367.027771 544.337097,355.154572 548.581543,344.644745 
	C549.447571,342.500214 550.742981,340.529083 552.063477,338.188293 
z"/>
<path fill="#000000" opacity="1.000000" stroke="none" 
	d="
M153.747864,434.823120 
	C155.852417,432.979736 157.573639,433.412323 159.435364,434.681274 
	C165.627960,438.902069 171.853271,443.076141 178.117294,447.190094 
	C180.309341,448.629700 181.128326,450.564056 181.094376,453.100464 
	C181.023010,458.431793 180.983597,463.765778 181.076630,469.096130 
	C181.122650,471.732635 180.086044,473.399445 177.787750,474.713165 
	C171.425980,478.349731 165.065018,482.019012 159.284607,486.558044 
	C157.185272,488.206573 155.538666,487.811584 153.477631,486.408783 
	C147.423355,482.288239 141.350830,478.166199 135.039703,474.463623 
	C132.012711,472.687836 130.731812,470.567780 130.992233,467.223022 
	C131.095337,465.898773 131.224289,464.507263 130.944748,463.233429 
	C128.635284,452.709351 133.407791,446.430298 142.701111,442.235901 
	C146.583115,440.483795 149.895813,437.470245 153.747864,434.823120 
z"/>
<path fill="#000000" opacity="1.000000" stroke="none" 
	d="
M703.522949,157.407135 
	C706.939026,154.503464 709.854553,154.742462 713.241577,157.080276 
	C718.583008,160.767029 724.186951,164.082687 729.763245,167.415741 
	C732.323914,168.946320 733.498169,170.892151 733.351257,173.936890 
	C733.150757,178.093781 732.950623,182.304550 733.387817,186.424576 
	C733.922852,191.466354 731.869995,194.481827 727.648865,196.906372 
	C722.165771,200.055756 716.921265,203.628067 711.642090,207.121124 
	C709.498840,208.539246 707.757385,208.959808 705.355530,207.281693 
	C699.349609,203.085541 693.130005,199.191498 686.941223,195.262848 
	C684.787354,193.895599 683.785828,192.211700 683.659912,189.567108 
	C682.749695,170.447891 682.701904,170.449417 698.958191,160.233170 
	C700.368652,159.346741 701.790161,158.477936 703.522949,157.407135 
z"/>
<path fill="#000000" opacity="1.000000" stroke="none" 
	d="
M310.466675,204.527771 
	C305.513123,201.416565 300.934967,198.370804 296.180115,195.631729 
	C293.277588,193.959671 291.826263,191.907074 291.956421,188.433426 
	C292.143280,183.447250 292.036865,178.440384 291.818848,173.452682 
	C291.701630,170.771179 292.712219,169.242096 294.996063,167.859955 
	C301.258881,164.069763 307.417267,160.094742 313.473236,155.981216 
	C315.879944,154.346451 317.840424,154.181595 320.283813,155.813812 
	C326.232758,159.787750 332.256989,163.654495 338.345123,167.411728 
	C340.631592,168.822784 341.377350,170.657578 341.327301,173.216400 
	C341.226440,178.376205 341.175476,183.544708 341.368561,188.699722 
	C341.490570,191.957458 340.063232,193.996750 337.445465,195.625916 
	C332.786591,198.525375 327.890045,201.164291 323.673767,204.620758 
	C319.092773,208.376160 315.113098,209.137131 310.466675,204.527771 
z"/>
<path fill="#000000" opacity="1.000000" stroke="none" 
	d="
M511.583069,682.329895 
	C511.295502,676.606262 511.041107,671.296204 510.639038,665.997375 
	C510.534424,664.618896 510.289490,663.323181 511.531036,662.370056 
	C513.049011,661.204712 514.436768,662.058411 515.633423,662.920288 
	C521.849548,667.397034 528.268555,671.544495 535.111450,674.996216 
	C537.060486,675.979492 537.527649,677.491211 537.498230,679.473145 
	C537.404480,685.786865 537.316956,692.102234 537.365479,698.415894 
	C537.383362,700.744812 536.180420,702.106201 534.430725,703.246277 
	C527.883850,707.512451 521.300110,711.723633 514.812500,716.078064 
	C512.820312,717.415222 511.249298,717.148376 509.360107,715.919983 
	C502.953339,711.754272 496.520721,707.621765 489.977783,703.675781 
	C487.713104,702.309998 486.660736,700.705444 486.729248,698.068848 
	C486.876099,692.417175 486.787170,686.759583 486.916534,681.107239 
	C487.003357,677.311401 490.482788,673.886414 494.128571,673.676941 
	C496.584229,673.535828 496.606110,675.264221 496.907104,676.939758 
	C497.643768,681.040466 502.815674,686.015198 506.924835,686.651611 
	C509.951416,687.120483 511.150116,685.396423 511.583069,682.329895 
z"/>
<path fill="#000000" opacity="1.000000" stroke="none" 
	d="
M864.783325,467.826599 
	C867.596619,460.074554 868.131592,452.424316 867.706238,444.633942 
	C867.552002,441.808838 867.923828,438.895782 864.909912,437.392609 
	C867.082581,432.942657 869.575439,433.132141 872.968628,435.588593 
	C878.751465,439.774811 884.789124,443.609009 890.718323,447.593140 
	C891.132019,447.871155 891.562805,448.133392 891.937500,448.458374 
	C895.351318,451.419434 895.313293,470.599548 891.606201,473.157776 
	C884.773438,477.872986 877.699463,482.239380 870.709290,486.725220 
	C869.733337,487.351501 868.541504,488.113220 867.467957,487.323669 
	C863.660217,484.523224 859.207458,482.455597 855.890381,477.672699 
	C860.492432,475.739655 863.745056,472.895081 864.783325,467.826599 
z"/>
<path fill="#000000" opacity="1.000000" stroke="none" 
	d="
M692.653564,715.792480 
	C700.695007,709.157349 709.363281,710.183289 713.594421,717.951843 
	C716.509155,723.303406 715.300171,729.997009 710.655457,734.223999 
	C706.461060,738.040955 699.720459,738.416687 695.015198,735.095825 
	C690.284058,731.756592 688.364441,725.195007 690.551086,719.576172 
	C691.025696,718.356567 691.772827,717.243103 692.653564,715.792480 
z"/>
<path fill="#000000" opacity="1.000000" stroke="none" 
	d="
M506.507935,743.010620 
	C518.258301,739.757568 527.167603,746.641968 525.084839,756.923035 
	C523.940613,762.571106 519.844727,766.552795 514.410461,767.299805 
	C508.138702,768.161865 504.074982,766.322632 501.364532,761.395020 
	C498.585876,756.343384 499.228729,749.802063 503.029510,745.617554 
	C503.904327,744.654419 505.091187,743.974609 506.507935,743.010620 
z"/>
<path fill="#000000" opacity="1.000000" stroke="none" 
	d="
M325.507996,737.152344 
	C316.584106,739.070496 309.292206,731.413940 310.004211,723.144470 
	C310.562714,716.658630 314.196869,712.673340 319.919128,711.790283 
	C326.529022,710.770325 332.083771,713.775391 334.387573,719.617676 
	C336.562805,725.133789 334.720215,731.698547 329.903229,735.128113 
	C328.715363,735.973755 327.259735,736.443420 325.507996,737.152344 
z"/>
<path fill="#000000" opacity="1.000000" stroke="none" 
	d="
M722.039795,875.953674 
	C712.938171,874.190063 707.869446,866.784729 710.318176,859.415466 
	C712.469666,852.940674 717.092285,850.031738 724.149841,850.711426 
	C729.859375,851.261292 734.496460,855.906006 735.243835,861.823730 
	C735.960449,867.498047 732.605713,872.847900 726.807739,875.040100 
	C725.433533,875.559753 723.900818,875.659729 722.039795,875.953674 
z"/>
<path fill="#000000" opacity="1.000000" stroke="none" 
	d="
M312.853333,856.587830 
	C317.122162,867.664185 310.753296,877.370728 300.628204,875.880920 
	C294.323120,874.953186 290.540436,870.832214 289.779663,864.062073 
	C289.152985,858.485413 291.829468,853.703918 296.797760,851.524658 
	C302.380188,849.075928 308.293579,850.836853 312.853333,856.587830 
z"/>
<path fill="#000000" opacity="1.000000" stroke="none" 
	d="
M795.305115,179.013519 
	C796.580933,185.632507 794.333130,190.732162 789.274963,193.217255 
	C783.853760,195.880707 778.078918,194.537888 774.069885,189.681564 
	C770.266174,185.074066 770.111572,179.346573 773.660583,174.520172 
	C777.352722,169.499100 782.730652,167.787292 788.133911,170.129700 
	C791.857605,171.744003 794.112610,174.753159 795.305115,179.013519 
z"/>
<path fill="#000000" opacity="1.000000" stroke="none" 
	d="
M235.644653,180.832275 
	C235.270493,180.108063 235.147141,179.613663 234.910736,179.181030 
	C231.686752,173.280823 233.585602,169.861023 240.575684,169.002838 
	C245.085342,168.449173 250.829453,171.622772 252.959839,175.845016 
	C255.529037,180.936951 254.588470,187.362991 250.729324,191.084045 
	C247.119797,194.564407 241.295059,195.564621 236.860611,193.352341 
	C234.762711,192.305740 232.445236,191.014954 232.545212,188.380890 
	C232.648758,185.652328 235.194595,186.633972 236.855530,186.363937 
	C238.241837,186.138580 238.742111,185.130066 238.838593,183.867508 
	C239.003845,181.704788 236.893784,181.961914 235.644653,180.832275 
z"/>
<path fill="#000000" opacity="1.000000" stroke="none" 
	d="
M235.939926,592.122314 
	C230.270340,596.000732 224.607132,596.143677 220.531967,592.769104 
	C215.978699,588.998596 214.915527,582.192505 217.911484,575.993774 
	C219.954834,571.765991 225.420029,569.194092 230.520172,570.092896 
	C233.232224,570.570801 235.519913,571.833557 237.268555,573.986877 
	C240.177979,577.569580 239.199371,580.154663 234.662277,580.856323 
	C233.680634,581.008118 232.602676,580.833618 231.704742,581.170654 
	C229.628616,581.950195 225.698074,581.303589 226.691055,585.000305 
	C227.469910,587.899902 230.600555,588.873657 233.696259,588.194641 
	C235.112289,587.884094 236.450211,587.217407 238.028915,586.636719 
	C239.185394,589.192444 237.398193,590.423889 235.939926,592.122314 
z"/>
<path fill="#000000" opacity="1.000000" stroke="none" 
	d="
M355.097656,332.852142 
	C360.032562,339.364777 360.004791,346.208527 355.313263,351.193512 
	C350.148285,356.681488 342.132874,355.692444 339.661713,349.163635 
	C340.048645,348.932220 340.455475,348.478424 340.854858,348.484924 
	C343.111328,348.521454 345.744385,349.521576 347.093414,346.848755 
	C348.542969,343.976837 346.436584,341.824677 344.971344,339.668640 
	C343.411194,337.372894 339.639893,335.674988 342.273621,332.177246 
	C345.013672,328.538269 348.786255,329.818146 352.291443,331.024109 
	C353.203308,331.337830 353.973450,332.063354 355.097656,332.852142 
z"/>
<path fill="#000000" opacity="1.000000" stroke="none" 
	d="
M809.620056,586.242920 
	C807.864014,590.393433 805.659302,593.475647 800.132812,593.838806 
	C801.662781,587.770264 810.766541,585.802917 807.106140,577.959229 
	C810.442993,580.392395 810.291138,583.078552 809.620056,586.242920 
z"/>
</svg>